# xmcd
# 
# Track frame offsets:
#     150
#     17999
#     36458
#     54307
#     69395
#     91653
#     107534
#     126485
#     143506
#     165701
#     182720
#     204250
# 
# Disc length: 2932
# 
# Revision: 0
# Processed by: cddbd v1.5.2PL0 Copyright (c) Steve Scherf et al.
# Submitted via: BonkEnc v1.0.5
# 
DISCID=9e0b720c
DTITLE=The Texas Dukes - Fatherland [CD2]
DYEAR=2008
DGENRE=Country
TTITLE0=Hollywood Cowboy
TTITLE1=Hotel Band
TTITLE2=No One But You
TTITLE3=Mary's Way
TTITLE4=Amarillo Bar Hop
TTITLE5=One Waltz With You
TTITLE6=Tequela Ranch
TTITLE7=Duketown
TTITLE8=Margaretta
TTITLE9=Panhandle Throw-Down
TTITLE10=Your Heart and Mine
TTITLE11=Fatherhood
EXTD=
EXTT0=
EXTT1=
EXTT2=
EXTT3=
EXTT4=
EXTT5=
EXTT6=
EXTT7=
EXTT8=
EXTT9=
EXTT10=
EXTT11=
PLAYORDER=
